<svg xmlns="http://www.w3.org/2000/svg" viewBox="0 0 1000 1000"><defs><style>.cls-1{fill:#f7df1e;}.cls-2{fill:#fff;}.cls-3{fill:none;}</style></defs><title>Recurso 15</title><g id="Capa_2" data-name="Capa 2"><g id="Capa_3" data-name="Capa 3"><path class="cls-1" d="M610.48,644.53l-.36,3.74h0l-2.3,24.2H384.42l-2.32-24.2h0L360.71,422.35l0,0c5,1.51,37.07,10.69,70.26,10.69,26.35,0,69.24-28.58,103.9-43l.44-.17c2.11-.87,4.17-1.68,6.21-2.43,1.06-.4,2.1-.76,3.13-1.12l.87-.28c1.36-.47,2.72-.89,4.06-1.28.66-.19,1.32-.38,2-.55.49-.13,1-.27,1.44-.38,2.11-.53,4.17-1,6.15-1.26,1.1-.17,2.17-.31,3.23-.4,1.3-.13,2.55-.19,3.76-.19.6,0,1.2,0,1.81,0,.41,0,.83,0,1.26,0,2,.05,4,.15,6,.32,24.93,2,53.16,11.72,58.74,13.63Z"/><path d="M296.83,167.48,313,337.23,348.51,712H643.9l35.39-374.75,16.14-169.75ZM639.61,337.23l-29.13,307.3-.34,3.74h0l-2.28,24.2H384.42l-2.3-24.2L360.71,422.35l-8.08-85.12L340.28,207H652Z"/><path d="M296.83,167.48,313,337.23l10.7,112.14L348.51,712H644.07l24.86-262.61,10.53-112.14L695.6,167.48ZM639.61,337.23,634,396l-5.11,53.35L610.48,644.53l-.36,3.74-2.28,24.2H384.42l-21.09-223.1-2.58-27-8.12-85.14L340.28,207H652Z"/><path d="M703.17,77.1l-3.79,39.51H599.12l-4.57,50.87L591,207l-15.72,175.4c-2-.17-4.06-.27-6-.32-.43,0-.85,0-1.26,0-.61,0-1.21,0-1.81,0-1.21,0-2.46.06-3.76.19-1.06.09-2.13.23-3.23.4-2,.3-4,.73-6.15,1.26-.47.11-.95.25-1.44.38-.66.17-1.32.36-2,.55-1.34.39-2.7.81-4.06,1.28l-.87.28c-1,.36-2.07.72-3.13,1.12-2,.75-4.1,1.56-6.21,2.43l-.44.17L551.38,207l3.55-39.51,8.13-90.38Z"/><path d="M438.31,615.84l20.15-11.6c3.19,5.66,6.53,8.7,14.36,8.7,10.14,0,13.19-5.8,13.19-12V532.05H509.2v68.86c0,22.33-15.65,34.65-36.53,34.65C456.58,635.56,445,628.74,438.31,615.84Z"/><path d="M517.19,610.48l20-11.6c3.63,8.41,9.86,14.06,21.32,14.06,11,0,13.77-4.35,13.77-8.26,0-6.24-5.8-8.7-21-12.9s-29.87-11.46-29.87-30.88S537.92,530,555.46,530c16.67,0,29.72,8,37.12,22.9L573,564.38c-3.48-7.25-8.26-11.75-17.54-11.75-7.25,0-10.87,3.63-10.87,7.69,0,4.64,2.46,7.83,18.26,12.61,15.37,4.64,32.62,10,32.62,31.46,0,19.57-15.65,31.17-37.69,31.17C536.47,635.56,522.84,625.41,517.19,610.48Z"/><path class="cls-2" d="M551.38,207l-16.47,183.1c-34.66,14.39-77.55,43-103.9,43-33.19,0-65.22-9.18-70.26-10.69l-8.12-85.14L340.28,207Z"/><path class="cls-2" d="M652,207,639.61,337.23,634,396c-5.58-1.91-33.81-11.63-58.74-13.63L591,207Z"/><path d="M218.24,824.74V921h-22V882.76H166V921H144V824.74h22v36.85h30.24V824.74Z"/><path d="M224.18,886.61a36.43,36.43,0,1,1,36.43,36.29A36,36,0,0,1,224.18,886.61Zm52.24,0c0-9.76-6.87-16.22-15.81-16.22s-15.81,6.46-15.81,16.22,6.87,16.22,15.81,16.22S276.42,896.37,276.42,886.61Z"/><path d="M343.53,850.86v23.38c-8.52-1.38-20.62,2.06-20.62,15.67V921H302.29V852.24h20.62v12.24C325.66,855.26,334.87,850.86,343.53,850.86Z"/><path d="M346.29,886.61c0-20.49,15.54-36.3,36.43-36.3,13.34,0,25.16,7,31.07,17.6l-18,10.45c-2.33-4.81-7.28-7.7-13.33-7.7-8.94,0-15.54,6.46-15.54,16s6.6,15.95,15.54,15.95c6.05,0,11.14-2.89,13.33-7.7l18,10.31c-5.91,10.72-17.59,17.73-31.07,17.73C361.83,922.9,346.29,907.09,346.29,886.61Z"/><path d="M485.3,878.77V921H464.67V881.8c0-8.53-5.36-12.51-12-12.51-7.56,0-12.78,4.4-12.78,14.16V921H419.31V824.74h20.62v34c3.71-5.09,10.58-8.39,19.66-8.39C473.47,850.31,485.3,860.21,485.3,878.77Z"/><path d="M566.56,852.24V921H545.94v-6.46c-4.54,5.22-11.28,8.38-20.49,8.38-18,0-32.85-15.81-32.85-36.29s14.84-36.3,32.85-36.3c9.21,0,15.95,3.17,20.49,8.39v-6.46Zm-20.62,34.37c0-10.31-6.87-16.77-16.36-16.77s-16.36,6.46-16.36,16.77,6.87,16.77,16.36,16.77S545.94,896.92,545.94,886.61Z"/><path d="M604.38,872v24.33c0,5.91,5.09,6.46,14.16,5.91V921c-26.95,2.75-34.78-5.36-34.78-24.61V872h-11v-19.8h11V839.18L604.38,833v19.25h14.16V872Z"/><path d="M698.7,852.24V921H678.08v-6.46c-4.54,5.22-11.28,8.38-20.49,8.38-18,0-32.86-15.81-32.86-36.29s14.85-36.3,32.86-36.3c9.21,0,15.95,3.17,20.49,8.39v-6.46Zm-20.62,34.37c0-10.31-6.88-16.77-16.36-16.77s-16.37,6.46-16.37,16.77,6.88,16.77,16.37,16.77S678.08,896.92,678.08,886.61Z"/><path d="M707,904.21l19.11-11c3,5.36,6.19,8.25,13.61,8.25,9.62,0,12.51-5.5,12.51-11.41V824.74h22v65.31c0,21.17-14.85,32.85-34.65,32.85C724.28,922.9,713.28,916.44,707,904.21Z"/><path d="M781.76,899.12l19-11c3.44,8,9.35,13.34,20.21,13.34,10.45,0,13.06-4.13,13.06-7.84,0-5.91-5.5-8.25-19.93-12.24s-28.32-10.86-28.32-29.28,15.67-29.28,32.31-29.28c15.8,0,28.18,7.56,35.19,21.72L834.69,855.4c-3.3-6.87-7.84-11.14-16.63-11.14-6.88,0-10.32,3.44-10.32,7.29,0,4.4,2.34,7.43,17.33,12C839.64,867.91,856,873,856,893.35c0,18.56-14.85,29.55-35.75,29.55C800.05,922.9,787.12,913.28,781.76,899.12Z"/><rect class="cls-3" width="1000" height="1000"/></g></g></svg>