<svg xmlns="http://www.w3.org/2000/svg" viewBox="0 0 1000 1000"><defs><style>.cls-1{fill:#f7df1e;}.cls-2{fill:#fff;}.cls-3{fill:none;}</style></defs><title>Recurso 16</title><g id="Capa_2" data-name="Capa 2"><g id="Capa_3" data-name="Capa 3"><path class="cls-1" d="M636,807.61l-.44,4.6h0L632.69,842H357.78l-2.86-29.78h0l-26.34-278,0,0c6.2,1.86,45.62,13.15,86.46,13.15,32.43,0,85.2-35.17,127.85-52.87l.54-.21c2.6-1.07,5.13-2.07,7.64-3,1.3-.48,2.58-.93,3.85-1.37l1.07-.34c1.68-.59,3.35-1.1,5-1.58.81-.24,1.62-.47,2.44-.68.6-.16,1.18-.32,1.76-.46,2.6-.65,5.13-1.19,7.57-1.56,1.35-.21,2.68-.37,4-.49a46.23,46.23,0,0,1,4.62-.23c.74,0,1.49,0,2.23,0,.51,0,1,0,1.55,0,2.42.07,4.91.18,7.41.39,30.69,2.46,65.42,14.43,72.29,16.77Z"/><path d="M250,220.62l19.84,208.87L313.6,890.6H677.06l43.56-461.11,19.86-208.87ZM671.79,429.49,636,807.61l-.42,4.6h0L632.69,842H357.78L355,812.21l-26.34-278-9.95-104.74L303.47,269.23H687Z"/><path d="M250,220.62l19.84,208.87,13.17,138L313.6,890.6H677.27l30.59-323.13,13-138,19.87-208.87ZM671.79,429.49l-6.88,72.33-6.29,65.65L636,807.61l-.44,4.6L632.69,842H357.78L331.84,567.47l-3.19-33.22-10-104.76L303.47,269.23H687Z"/><path d="M750,109.4,745.33,158H622l-5.62,62.61L612,269.23,592.62,485.05c-2.5-.21-5-.32-7.41-.39-.53,0-1,0-1.55,0-.74,0-1.49,0-2.23,0a46.23,46.23,0,0,0-4.62.23c-1.3.12-2.63.28-4,.49-2.44.37-5,.91-7.57,1.56-.58.14-1.16.3-1.76.46-.82.21-1.63.44-2.44.68-1.65.48-3.32,1-5,1.58L555,490c-1.27.44-2.55.89-3.85,1.37-2.51.93-5,1.93-7.64,3l-.54.21,20.26-225.3,4.36-48.61,10-111.22Z"/><path d="M424.1,772.31,448.89,758c3.92,7,8,10.7,17.66,10.7,12.49,0,16.23-7.13,16.23-14.8V669.2h28.55v84.74c0,27.47-19.27,42.63-45,42.63C446.57,796.57,432.3,788.19,424.1,772.31Z"/><path d="M521.15,765.71l24.62-14.27c4.46,10.35,12.13,17.3,26.22,17.3,13.56,0,17-5.35,17-10.17,0-7.67-7.14-10.7-25.87-15.87-18.55-5.18-36.75-14.1-36.75-38,0-24.08,20.34-38,41.93-38,20.51,0,36.56,9.81,45.66,28.18L589.83,709c-4.28-8.92-10.17-14.45-21.58-14.45-8.92,0-13.38,4.46-13.38,9.46,0,5.71,3,9.63,22.47,15.52,18.91,5.71,40.14,12.31,40.14,38.71,0,24.08-19.27,38.35-46.38,38.35C544.88,796.57,528.11,784.08,521.15,765.71Z"/><path class="cls-2" d="M563.22,269.23,543,494.53c-42.65,17.7-95.42,52.87-127.85,52.87-40.84,0-80.26-11.29-86.46-13.15l-10-104.76L303.47,269.23Z"/><path class="cls-2" d="M687,269.23,671.79,429.49l-6.88,72.33c-6.87-2.34-41.6-14.31-72.29-16.77L612,269.23Z"/><rect class="cls-3" width="1000" height="1000"/></g></g></svg>