<svg xmlns="http://www.w3.org/2000/svg" viewBox="0 0 1000 1000"><defs><style>.cls-1{fill:none;}</style></defs><title>Recurso 18</title><g id="Capa_2" data-name="Capa 2"><g id="Capa_3" data-name="Capa 3"><path d="M664.91,501.82c-6.88-2.35-41.6-14.31-72.29-16.77-2.51-.21-5-.33-7.41-.39-.53,0-1,0-1.55,0h-2.23a46,46,0,0,0-4.62.22c-1.31.12-2.62.27-4,.48-2.44.38-5,.91-7.58,1.57l-1.76.45c-.81.21-1.63.45-2.44.68-1.64.5-3.31,1-5,1.58L555,490c-1.28.44-2.56.89-3.85,1.37-2.52.93-5,1.93-7.64,3l-.54.21c-42.65,17.7-95.43,52.87-127.85,52.87-40.83,0-80.26-11.3-86.46-13.15,0,0,0,0,0,0l26.35,278h0L357.78,842H632.69l2.83-29.78h0l.44-4.6ZM511.32,753.94c0,27.48-19.26,42.63-44.95,42.63-19.8,0-34.07-8.38-42.28-24.25L448.89,758c3.93,7,8,10.71,17.67,10.71,12.47,0,16.22-7.14,16.22-14.81V669.21h28.54Zm59.78,42.63c-26.23,0-43-12.49-50-30.85l24.61-14.28c4.46,10.35,12.14,17.31,26.23,17.31,13.55,0,16.94-5.37,16.94-10.17,0-7.67-7.14-10.71-25.86-15.88-18.56-5.18-36.74-14.1-36.74-38,0-24.08,20.33-38,41.92-38,20.5,0,36.56,9.8,45.66,28.18L589.82,709c-4.28-8.93-10.17-14.46-21.57-14.46-8.93,0-13.39,4.46-13.39,9.46,0,5.71,3,9.64,22.47,15.51,18.92,5.71,40.15,12.31,40.15,38.72C617.48,782.3,598.21,796.57,571.1,796.57Z"/><path d="M250,220.61l19.82,208.87L313.6,890.61H677.06l43.56-461.13,19.85-208.87ZM671.78,429.48,636,807.61l-.43,4.6h0L632.69,842H357.78L355,812.21l-26.35-278-9.94-104.74-15.2-160.24H687Z"/><path d="M250,220.61l19.82,208.87,13.18,138,30.6,323.14H677.27l30.59-323.14,13-138,19.85-208.87ZM671.78,429.48l-6.87,72.34-6.29,65.65L636,807.61l-.44,4.6L632.69,842H357.78L331.83,567.47l-3.18-33.22-10-104.77-15.2-160.24H687Z"/><path d="M750,109.39,745.33,158H622l-5.62,62.6L612,269.23,592.62,485.05c-2.51-.21-5-.33-7.41-.4-.53,0-1,0-1.55,0-.75,0-1.49,0-2.23,0-1.49,0-3,.07-4.63.23-1.3.12-2.62.28-4,.49-2.44.37-5,.9-7.57,1.55-.58.14-1.16.31-1.77.47-.81.21-1.62.44-2.44.67-1.64.49-3.32,1-5,1.58L555,490c-1.28.44-2.55.88-3.85,1.37-2.51.93-5,1.93-7.65,3l-.53.21,20.25-225.3,4.37-48.62,10-111.22Z"/><rect class="cls-1" width="1000" height="1000"/></g></g></svg>