<svg xmlns="http://www.w3.org/2000/svg" viewBox="0 0 1000 1000"><defs><style>.cls-1{fill:#fff;}.cls-2{fill:none;}</style></defs><title>Recurso 20</title><g id="Capa_2" data-name="Capa 2"><g id="Capa_3" data-name="Capa 3"><path class="cls-1" d="M664.92,501.82c-6.88-2.35-41.61-14.32-72.29-16.77-2.52-.21-5-.33-7.41-.39-.53,0-1,0-1.56,0-.75,0-1.49,0-2.22,0a43.48,43.48,0,0,0-4.63.23c-1.31.12-2.62.27-4,.48-2.44.38-5,.9-7.57,1.57-.58.13-1.16.3-1.77.45-.81.21-1.62.45-2.44.68-1.64.49-3.31,1-5,1.58l-1.07.34c-1.28.44-2.56.89-3.86,1.38-2.51.93-5,1.92-7.64,3l-.54.21c-42.64,17.7-95.43,52.88-127.85,52.88-40.83,0-80.26-11.3-86.46-13.15,0,0,0,0,0,0l26.35,278h0L357.78,842H632.7l2.83-29.78h0l.44-4.6ZM511.33,753.94c0,27.48-19.27,42.63-44.95,42.63-19.81,0-34.08-8.38-42.29-24.25L448.89,758c3.93,7,8,10.71,17.67,10.71,12.47,0,16.22-7.14,16.22-14.81V669.2h28.55Zm59.77,42.63c-26.22,0-43-12.49-50-30.85l24.61-14.28c4.46,10.35,12.15,17.31,26.23,17.31,13.56,0,17-5.37,17-10.17,0-7.67-7.14-10.71-25.87-15.88-18.56-5.18-36.74-14.1-36.74-38,0-24.08,20.34-38,41.92-38,20.51,0,36.56,9.81,45.66,28.19L589.83,709c-4.28-8.93-10.17-14.46-21.58-14.46-8.93,0-13.39,4.46-13.39,9.46,0,5.71,3,9.64,22.48,15.51,18.92,5.71,40.14,12.31,40.14,38.72C617.48,782.3,598.22,796.57,571.1,796.57Z"/><path class="cls-1" d="M250,220.6l19.82,208.88L313.6,890.61H677.06l43.57-461.13L740.48,220.6ZM671.79,429.48,636,807.61l-.42,4.6h0L632.7,842H357.78L355,812.21l-26.35-278-9.94-104.74-15.2-160.25H687Z"/><path class="cls-1" d="M250,220.6l19.82,208.88,13.19,138L313.6,890.61H677.27l30.6-323.15,13-138L740.69,220.6ZM671.79,429.48l-6.87,72.34-6.3,65.64L636,807.61l-.44,4.6L632.7,842H357.78L331.83,567.46l-3.18-33.21-10-104.77-15.2-160.25H687Z"/><path class="cls-1" d="M750,109.39,745.33,158H622l-5.63,62.6L612,269.23,592.63,485.05c-2.52-.21-5-.33-7.41-.39-.53,0-1,0-1.56,0-.75,0-1.49,0-2.22,0a43.48,43.48,0,0,0-4.63.23c-1.31.12-2.62.27-4,.48-2.44.38-5,.9-7.57,1.57-.58.13-1.16.3-1.77.45-.81.21-1.62.45-2.44.68-1.64.49-3.31,1-5,1.58l-1.07.34c-1.28.44-2.56.89-3.86,1.38-2.51.93-5,1.92-7.64,3l-.54.21,20.26-225.29,4.37-48.63,10-111.21Z"/><rect class="cls-2" width="1000" height="1000"/></g></g></svg>