<svg xmlns="http://www.w3.org/2000/svg" viewBox="0 0 1000 1000"><defs><style>.cls-1{fill:#fff;}.cls-2{fill:none;}</style></defs><title>Recurso 19</title><g id="Capa_2" data-name="Capa 2"><g id="Capa_3" data-name="Capa 3"><path class="cls-1" d="M634,396c-5.6-1.91-33.82-11.63-58.75-13.62-2-.17-4.07-.27-6-.32-.43,0-.84,0-1.26,0-.61,0-1.21,0-1.81,0a34.94,34.94,0,0,0-3.76.19c-1.06.1-2.13.22-3.23.39-2,.3-4,.73-6.16,1.27l-1.43.37c-.66.17-1.32.37-2,.55-1.34.4-2.7.82-4.06,1.29l-.86.28c-1,.35-2.09.72-3.14,1.11-2,.76-4.1,1.57-6.21,2.44l-.44.17c-34.65,14.38-77.55,43-103.89,43-33.19,0-65.23-9.18-70.27-10.69l0,0,21.41,225.91h0l2.32,24.2H607.84l2.3-24.2h0l.35-3.73ZM509.21,600.91c0,22.33-15.66,34.64-36.53,34.64-16.1,0-27.7-6.8-34.37-19.71l20.15-11.6c3.2,5.65,6.53,8.7,14.36,8.7,10.14,0,13.19-5.8,13.19-12V532.05h23.2Zm48.57,34.64c-21.31,0-34.94-10.15-40.59-25.07l20-11.6c3.62,8.41,9.87,14.06,21.31,14.06,11,0,13.78-4.36,13.78-8.26,0-6.23-5.81-8.71-21-12.9s-29.86-11.46-29.86-30.89S537.93,530,555.47,530c16.66,0,29.71,8,37.1,22.91L573,564.38c-3.48-7.26-8.26-11.75-17.53-11.75-7.26,0-10.88,3.62-10.88,7.68,0,4.64,2.47,7.84,18.26,12.61,15.38,4.64,32.63,10,32.63,31.46C595.48,624,579.82,635.55,557.78,635.55Z"/><path class="cls-1" d="M296.83,167.48l16.11,169.75L348.52,712H643.89L679.3,337.23l16.13-169.75ZM639.61,337.23l-29.13,307.3-.34,3.73h0l-2.29,24.2H384.42l-2.3-24.2L360.71,422.35l-8.08-85.12L340.28,207H652Z"/><path class="cls-1" d="M296.83,167.48l16.11,169.75,10.71,112.13L348.52,712H644.06l24.87-262.62,10.54-112.13L695.6,167.48ZM639.61,337.23,634,396l-5.12,53.35L610.48,644.53l-.35,3.73-2.29,24.2H384.42l-21.09-223.1-2.58-27-8.12-85.14L340.28,207H652Z"/><path class="cls-1" d="M703.17,77.1l-3.8,39.5H599.12l-4.58,50.88L591,207,575.28,382.39c-2-.17-4.07-.27-6-.32-.43,0-.84,0-1.26,0-.61,0-1.21,0-1.81,0a34.94,34.94,0,0,0-3.76.19c-1.06.1-2.13.22-3.23.39-2,.3-4,.73-6.16,1.27l-1.43.37c-.66.17-1.32.37-2,.55-1.34.4-2.7.82-4.06,1.29l-.86.28c-1,.35-2.09.72-3.14,1.11-2,.76-4.1,1.57-6.21,2.44l-.44.17L551.38,207l3.55-39.52,8.13-90.38Z"/><path class="cls-1" d="M218.24,824.74V921h-22V882.76H166V921H144V824.74h22v36.85h30.24V824.74Z"/><path class="cls-1" d="M224.18,886.61a36.43,36.43,0,1,1,36.43,36.29A36,36,0,0,1,224.18,886.61Zm52.24,0c0-9.77-6.87-16.23-15.81-16.23s-15.81,6.46-15.81,16.23,6.87,16.22,15.81,16.22S276.42,896.37,276.42,886.61Z"/><path class="cls-1" d="M343.53,850.86v23.37c-8.52-1.37-20.62,2.06-20.62,15.68V921H302.29V852.24h20.62v12.23C325.66,855.26,334.87,850.86,343.53,850.86Z"/><path class="cls-1" d="M346.29,886.61c0-20.49,15.54-36.3,36.43-36.3,13.34,0,25.16,7,31.07,17.6l-18,10.45c-2.33-4.81-7.28-7.7-13.33-7.7-8.94,0-15.54,6.46-15.54,16s6.6,15.95,15.54,15.95c6.05,0,11.14-2.89,13.33-7.71l18,10.32c-5.91,10.72-17.59,17.73-31.07,17.73C361.83,922.9,346.29,907.09,346.29,886.61Z"/><path class="cls-1" d="M485.3,878.77V921H464.67V881.79c0-8.52-5.36-12.51-12-12.51-7.56,0-12.78,4.4-12.78,14.16V921H419.31V824.74h20.62v34c3.71-5.09,10.58-8.39,19.66-8.39C473.47,850.31,485.3,860.21,485.3,878.77Z"/><path class="cls-1" d="M566.56,852.24V921H545.94v-6.46c-4.54,5.22-11.28,8.38-20.49,8.38-18,0-32.85-15.81-32.85-36.29s14.84-36.3,32.85-36.3c9.21,0,15.95,3.16,20.49,8.39v-6.46Zm-20.62,34.37c0-10.32-6.87-16.78-16.36-16.78s-16.36,6.46-16.36,16.78,6.87,16.77,16.36,16.77S545.94,896.92,545.94,886.61Z"/><path class="cls-1" d="M604.38,872v24.34c0,5.91,5.09,6.46,14.16,5.91V921c-26.95,2.75-34.78-5.36-34.78-24.61V872h-11V852.24h11V839.17L604.38,833v19.25h14.16V872Z"/><path class="cls-1" d="M698.7,852.24V921H678.08v-6.46c-4.54,5.22-11.28,8.38-20.49,8.38-18,0-32.86-15.81-32.86-36.29s14.85-36.3,32.86-36.3c9.21,0,15.95,3.16,20.49,8.39v-6.46Zm-20.62,34.37c0-10.32-6.88-16.78-16.36-16.78s-16.37,6.46-16.37,16.78,6.88,16.77,16.37,16.77S678.08,896.92,678.08,886.61Z"/><path class="cls-1" d="M707,904.2l19.11-11c3,5.36,6.19,8.24,13.61,8.24,9.62,0,12.51-5.5,12.51-11.41v-65.3h22V890c0,21.18-14.85,32.86-34.65,32.86C724.28,922.9,713.28,916.44,707,904.2Z"/><path class="cls-1" d="M781.76,899.12l19-11c3.44,8,9.35,13.33,20.21,13.33,10.45,0,13.06-4.12,13.06-7.83,0-5.91-5.5-8.25-19.93-12.24s-28.32-10.86-28.32-29.28,15.67-29.29,32.31-29.29c15.8,0,28.18,7.56,35.19,21.73L834.69,855.4c-3.3-6.88-7.84-11.14-16.63-11.14-6.88,0-10.32,3.44-10.32,7.29,0,4.4,2.34,7.42,17.33,12C839.64,867.91,856,873,856,893.34c0,18.56-14.85,29.56-35.75,29.56C800.05,922.9,787.12,913.28,781.76,899.12Z"/><rect class="cls-2" width="1000" height="1000"/></g></g></svg>