<svg xmlns="http://www.w3.org/2000/svg" viewBox="0 0 1000 1000"><defs><style>.cls-1{fill:#fff;}.cls-2{fill:#f7df1e;}.cls-3{fill:none;}</style></defs><title>Recurso 21</title><g id="Capa_2" data-name="Capa 2"><g id="Capa_3" data-name="Capa 3"><path class="cls-1" d="M723.7,63.65H546.05A12.41,12.41,0,0,0,533.69,75l-6.1,67.8A12.41,12.41,0,0,1,515.23,154H276.37A12.41,12.41,0,0,0,264,167.62l55.22,581.72a12.42,12.42,0,0,0,12.35,11.24H661a12.41,12.41,0,0,0,12.35-11.24l26.46-279.49L736.06,77.2A12.41,12.41,0,0,0,723.7,63.65Z"/><path class="cls-2" d="M610.48,662.11l-.36,3.73h0l-2.3,24.21H384.42l-2.32-24.21h0L360.71,439.93l0,0c5,1.51,37.07,10.69,70.26,10.69,26.35,0,69.24-28.59,103.9-43l.44-.17c2.11-.87,4.17-1.68,6.21-2.44,1.06-.39,2.1-.75,3.13-1.11l.87-.28c1.36-.47,2.72-.89,4.06-1.29l2-.54c.49-.14,1-.27,1.44-.38,2.11-.53,4.17-1,6.15-1.27,1.1-.17,2.17-.3,3.23-.39,1.3-.13,2.55-.19,3.76-.19.6,0,1.2,0,1.81,0,.41,0,.83,0,1.26,0,2,.05,4,.15,6,.32,24.93,2,53.16,11.72,58.74,13.63Z"/><path d="M296.83,185.06,313,354.81l35.56,374.75H643.9l35.39-374.75,16.14-169.75ZM639.61,354.81l-29.13,307.3-.34,3.73h0l-2.28,24.21H384.42l-2.3-24.21L360.71,439.93l-8.08-85.12L340.28,224.57H652Z"/><path d="M296.83,185.06,313,354.81,323.65,467l24.86,262.61H644.07L668.93,467l10.53-112.14L695.6,185.06ZM639.61,354.81,634,413.6,628.91,467,610.48,662.11l-.36,3.73-2.28,24.21H384.42L363.33,467l-2.58-27-8.12-85.14L340.28,224.57H652Z"/><path d="M703.17,94.67l-3.79,39.51H599.12l-4.57,50.88L591,224.57,575.28,400c-2-.17-4.06-.27-6-.32-.43,0-.85,0-1.26,0-.61,0-1.21,0-1.81,0-1.21,0-2.46.06-3.76.19-1.06.09-2.13.22-3.23.39-2,.31-4,.74-6.15,1.27-.47.11-.95.24-1.44.38l-2,.54c-1.34.4-2.7.82-4.06,1.29l-.87.28c-1,.36-2.07.72-3.13,1.11-2,.76-4.1,1.57-6.21,2.44l-.44.17,16.47-183.1,3.55-39.51,8.13-90.39Z"/><path d="M438.31,633.42l20.15-11.6c3.19,5.66,6.53,8.7,14.36,8.7,10.14,0,13.19-5.8,13.19-12V549.63H509.2v68.86c0,22.32-15.65,34.65-36.53,34.65C456.58,653.14,445,646.32,438.31,633.42Z"/><path d="M517.19,628.06l20-11.6c3.63,8.41,9.86,14.06,21.32,14.06,11,0,13.77-4.35,13.77-8.26,0-6.24-5.8-8.7-21-12.91s-29.87-11.45-29.87-30.87c0-19.58,16.53-30.88,34.07-30.88,16.67,0,29.72,8,37.12,22.9L573,582c-3.48-7.25-8.26-11.74-17.54-11.74-7.25,0-10.87,3.63-10.87,7.68,0,4.64,2.46,7.83,18.26,12.62,15.37,4.64,32.62,10,32.62,31.46,0,19.57-15.65,31.17-37.69,31.17C536.47,653.14,522.84,643,517.19,628.06Z"/><path class="cls-1" d="M551.38,224.57l-16.47,183.1c-34.66,14.38-77.55,43-103.9,43-33.19,0-65.22-9.18-70.26-10.69l-8.12-85.14L340.28,224.57Z"/><path class="cls-1" d="M652,224.57,639.61,354.81,634,413.6c-5.58-1.91-33.81-11.63-58.74-13.63L591,224.57Z"/><path class="cls-1" d="M218.24,838.18v96.24h-22V896.2H166v38.22H144V838.18h22V875h30.24V838.18Z"/><path class="cls-1" d="M224.18,900.05a36.43,36.43,0,1,1,36.43,36.3A36,36,0,0,1,224.18,900.05Zm52.24,0c0-9.76-6.87-16.22-15.81-16.22s-15.81,6.46-15.81,16.22,6.87,16.22,15.81,16.22S276.42,909.81,276.42,900.05Z"/><path class="cls-1" d="M343.53,864.3v23.38c-8.52-1.38-20.62,2.06-20.62,15.67v31.07H302.29V865.68h20.62v12.24C325.66,868.7,334.87,864.3,343.53,864.3Z"/><path class="cls-1" d="M346.29,900.05c0-20.48,15.54-36.29,36.43-36.29,13.34,0,25.16,7,31.07,17.59l-18,10.45c-2.33-4.81-7.28-7.7-13.33-7.7-8.94,0-15.54,6.47-15.54,15.95s6.6,16,15.54,16c6.05,0,11.14-2.89,13.33-7.7l18,10.31c-5.91,10.72-17.59,17.74-31.07,17.74C361.83,936.35,346.29,920.54,346.29,900.05Z"/><path class="cls-1" d="M485.3,892.21v42.21H464.67V895.24c0-8.52-5.36-12.51-12-12.51-7.56,0-12.78,4.4-12.78,14.16v37.53H419.31V838.18h20.62v34c3.71-5.08,10.58-8.38,19.66-8.38C473.47,863.76,485.3,873.65,485.3,892.21Z"/><path class="cls-1" d="M566.56,865.68v68.74H545.94V928c-4.54,5.23-11.28,8.39-20.49,8.39-18,0-32.85-15.81-32.85-36.3s14.84-36.29,32.85-36.29c9.21,0,15.95,3.16,20.49,8.38v-6.46Zm-20.62,34.37c0-10.31-6.87-16.77-16.36-16.77s-16.36,6.46-16.36,16.77,6.87,16.77,16.36,16.77S545.94,910.36,545.94,900.05Z"/><path class="cls-1" d="M604.38,885.48v24.33c0,5.91,5.09,6.46,14.16,5.91v18.7c-26.95,2.75-34.78-5.36-34.78-24.61V885.48h-11v-19.8h11V852.62l20.62-6.19v19.25h14.16v19.8Z"/><path class="cls-1" d="M698.7,865.68v68.74H678.08V928c-4.54,5.23-11.28,8.39-20.49,8.39-18,0-32.86-15.81-32.86-36.3s14.85-36.29,32.86-36.29c9.21,0,15.95,3.16,20.49,8.38v-6.46Zm-20.62,34.37c0-10.31-6.88-16.77-16.36-16.77s-16.37,6.46-16.37,16.77,6.88,16.77,16.37,16.77S678.08,910.36,678.08,900.05Z"/><path class="cls-1" d="M707,917.65l19.11-11c3,5.36,6.19,8.25,13.61,8.25,9.62,0,12.51-5.5,12.51-11.41V838.18h22v65.31c0,21.17-14.85,32.86-34.65,32.86C724.28,936.35,713.28,929.88,707,917.65Z"/><path class="cls-1" d="M781.76,912.56l19-11c3.44,8,9.35,13.34,20.21,13.34,10.45,0,13.06-4.13,13.06-7.84,0-5.91-5.5-8.25-19.93-12.23S785.75,884,785.75,865.54s15.67-29.28,32.31-29.28c15.8,0,28.18,7.56,35.19,21.72l-18.56,10.86c-3.3-6.87-7.84-11.13-16.63-11.13-6.88,0-10.32,3.43-10.32,7.28,0,4.4,2.34,7.43,17.33,12,14.57,4.39,30.93,9.48,30.93,29.83,0,18.56-14.85,29.56-35.75,29.56C800.05,936.35,787.12,926.72,781.76,912.56Z"/><rect class="cls-3" width="1000" height="1000"/></g></g></svg>