<svg xmlns="http://www.w3.org/2000/svg" viewBox="0 0 1000 1000"><defs><style>.cls-1{fill:#fff;}.cls-2{fill:#f7df1e;}.cls-3{fill:none;}</style></defs><title>Recurso 22</title><g id="Capa_2" data-name="Capa 2"><g id="Capa_3" data-name="Capa 3"><path class="cls-1" d="M736.86,131H548.73a13.14,13.14,0,0,0-13.09,12l-6.46,71.8a13.14,13.14,0,0,1-13.09,12h-253a13.14,13.14,0,0,0-13.08,14.38l58.48,616A13.13,13.13,0,0,0,321.62,869H670.46a13.14,13.14,0,0,0,13.08-11.9l28-296,38.38-415.81A13.13,13.13,0,0,0,736.86,131Z"/><path class="cls-2" d="M617,764.73l-.38,4h0l-2.44,25.63H377.57l-2.46-25.63h0L352.46,529.46l0,0c5.34,1.6,39.26,11.31,74.41,11.31,27.9,0,73.32-30.26,110-45.5l.46-.18c2.24-.92,4.42-1.78,6.57-2.58,1.12-.42,2.22-.8,3.32-1.18l.92-.3c1.44-.5,2.88-.94,4.3-1.36.7-.2,1.4-.4,2.1-.58.52-.14,1-.28,1.52-.4,2.24-.55,4.42-1,6.52-1.33q1.74-.27,3.42-.42a38.94,38.94,0,0,1,4-.2c.64,0,1.28,0,1.92,0,.44,0,.88,0,1.34,0,2.08.06,4.22.16,6.38.34,26.41,2.11,56.29,12.41,62.21,14.43Z"/><path d="M284.81,259.56l17.07,179.76,37.66,396.84H652.35l37.48-396.84,17.09-179.76Zm363,179.76L617,764.73l-.36,4h0l-2.42,25.63H377.57l-2.44-25.63L352.46,529.46l-8.56-90.14L330.83,301.4H660.9Z"/><path d="M284.81,259.56l17.07,179.76,11.34,118.74,26.32,278.1h313l26.33-278.1L690,439.32,707.1,259.56Zm363,179.76-5.92,62.25-5.42,56.49L617,764.73l-.38,4-2.42,25.63H377.57L355.24,558.06l-2.74-28.58-8.6-90.16L330.83,301.4H660.9Z"/><path d="M715.12,163.84l-4,41.84H604.93l-4.84,53.88-3.76,41.84L579.68,487.14c-2.16-.18-4.3-.28-6.38-.34-.46,0-.9,0-1.34,0-.64,0-1.28,0-1.92,0a38.94,38.94,0,0,0-4,.2q-1.68.15-3.42.42c-2.1.32-4.28.78-6.52,1.33-.5.12-1,.26-1.52.4-.7.18-1.4.38-2.1.58-1.42.42-2.86.86-4.3,1.36l-.92.3c-1.1.38-2.2.76-3.32,1.18-2.15.8-4.33,1.66-6.57,2.58l-.46.18L554.37,301.4l3.76-41.84,8.62-95.72Z"/><path d="M434.64,734.36,456,722.08c3.37,6,6.91,9.21,15.2,9.21,10.74,0,14-6.15,14-12.75V645.62h24.56v72.92c0,23.65-16.58,36.7-38.69,36.7C454,755.24,441.7,748,434.64,734.36Z"/><path d="M518.17,728.68l21.18-12.29c3.84,8.91,10.44,14.9,22.57,14.9,11.67,0,14.59-4.61,14.59-8.75,0-6.61-6.15-9.22-22.26-13.67s-31.63-12.13-31.63-32.7,17.5-32.7,36.08-32.7c17.65,0,31.47,8.44,39.3,24.26l-20.73,12.13c-3.68-7.68-8.75-12.44-18.57-12.44-7.68,0-11.52,3.84-11.52,8.14,0,4.91,2.61,8.29,19.35,13.36,16.27,4.91,34.54,10.59,34.54,33.31,0,20.73-16.58,33-39.92,33C538.59,755.24,524.15,744.49,518.17,728.68Z"/><path class="cls-1" d="M554.37,301.4,536.94,495.29c-36.71,15.24-82.13,45.5-110,45.5-35.15,0-69.07-9.71-74.41-11.31l-8.6-90.16L330.83,301.4Z"/><path class="cls-1" d="M660.9,301.4,647.81,439.32l-5.92,62.25c-5.92-2-35.8-12.32-62.21-14.43L596.33,301.4Z"/><rect class="cls-3" width="1000" height="1000"/></g></g></svg>