<svg xmlns="http://www.w3.org/2000/svg" viewBox="0 0 1000 1000"><defs><style>.cls-1{fill:#fff;}.cls-2{fill:#f7df1e;}.cls-3{fill:none;}</style></defs><title>Recurso 23</title><g id="Capa_2" data-name="Capa 2"><g id="Capa_3" data-name="Capa 3"><path class="cls-1" d="M704,85.2H540.56a11.42,11.42,0,0,0-11.37,10.39L523.57,158a11.42,11.42,0,0,1-11.37,10.39H292.42a11.41,11.41,0,0,0-11.36,12.49L331.87,716.1a11.41,11.41,0,0,0,11.36,10.34H646.32a11.42,11.42,0,0,0,11.37-10.34L682,458.94,715.38,97.67A11.41,11.41,0,0,0,704,85.2Z"/><path class="cls-1" d="M852.63,829.7a6.79,6.79,0,0,0,2.66-8.89l-8.2-16.58c-11-22.11-31.46-34.8-56.26-34.8A60.59,60.59,0,0,0,777.09,771a6.12,6.12,0,0,1-1.42.16H710.4a6.81,6.81,0,0,0-6.81,6.81V789.7a6.8,6.8,0,0,1-6.8,6.8h-38.6a6.18,6.18,0,0,1-1.48-.18,57,57,0,0,0-13.52-1.59,53.46,53.46,0,0,0-12.72,1.59,6.43,6.43,0,0,1-1.51.18h-1.29a6.8,6.8,0,0,1-6.81-6.8V778.77a6.8,6.8,0,0,0-8.76-6.51l-58.64,17.59a6.8,6.8,0,0,0-4.85,6.52v.13H535.86a57.17,57.17,0,0,0-14.25-1.77,54.15,54.15,0,0,0-27.46,7.52,6.55,6.55,0,0,1-6.78-.12,48.46,48.46,0,0,0-12.8-5.6,6.79,6.79,0,0,1-5-6.54V778a6.8,6.8,0,0,0-6.8-6.81H404.11a6.8,6.8,0,0,0-6.8,6.81v10a6.8,6.8,0,0,1-7,6.73h-.07a63.34,63.34,0,0,0-9.42.78v-.27H354.23a50.36,50.36,0,0,0-10.65,1.12,6.6,6.6,0,0,1-1.33.14H293.18a6,6,0,0,1-1.4-.16,62.28,62.28,0,0,0-13.85-1.61c-1.65,0-3.27.07-4.88.19a6.83,6.83,0,0,1-7.47-6.75V778a6.81,6.81,0,0,0-6.8-6.81h-108A6.81,6.81,0,0,0,144,778V906.22a6.81,6.81,0,0,0,6.8,6.81H262.66a6,6,0,0,1,1.4.16,60.51,60.51,0,0,0,27.73,0,6,6,0,0,1,1.41-.16h68.69v-5.14a61.21,61.21,0,0,0,42.2,5.3,6.72,6.72,0,0,1,1.42-.16H507.37a6.43,6.43,0,0,1,1.51.18,53.1,53.1,0,0,0,12.73,1.59,57.12,57.12,0,0,0,13.54-1.59,6.12,6.12,0,0,1,1.48-.18h49.44v-.59a71.32,71.32,0,0,0,12.59,1.08,111.26,111.26,0,0,0,11.3-.63L623,911.56a6.62,6.62,0,0,1,2.86.34,53.7,53.7,0,0,0,17.29,2.9,57,57,0,0,0,13.53-1.59,6.2,6.2,0,0,1,1.49-.18h44.27a6.16,6.16,0,0,1,1.36.15,67.41,67.41,0,0,0,14.75,1.62A61.62,61.62,0,0,0,751.16,906a6.51,6.51,0,0,1,6.67-.1c9.92,5.8,21.82,8.95,35,8.95,34.49,0,59.53-22.64,59.53-53.84a52.47,52.47,0,0,0-4.33-21.73,6.71,6.71,0,0,1,2.83-8.5Z"/><path class="cls-2" d="M599.84,635.83l-.33,3.44h0l-2.12,22.27H391.84l-2.13-22.27h0L370,431.41s0,0,0,0c4.64,1.39,34.12,9.83,64.65,9.83,24.25,0,63.71-26.3,95.6-39.53l.4-.16c1.95-.8,3.84-1.54,5.72-2.24,1-.36,1.93-.69,2.88-1,.26-.09.52-.18.8-.26,1.25-.44,2.5-.82,3.73-1.19l1.83-.5L547,396c1.94-.48,3.84-.88,5.66-1.16,1-.16,2-.28,3-.37,1.2-.12,2.35-.17,3.46-.17.55,0,1.11,0,1.66,0,.39,0,.77,0,1.17,0,1.81,0,3.66.13,5.54.29,22.94,1.84,48.91,10.79,54,12.54Z"/><path d="M311.25,196.91l14.83,156.18,32.73,344.8H630.59l32.57-344.8L678,196.91ZM626.64,353.09l-26.8,282.74-.31,3.44h0l-2.1,22.27H391.84l-2.11-22.27L370,431.41l-7.44-78.32L351.23,233.26H638Z"/><path d="M311.25,196.91l14.83,156.18,9.85,103.18,22.88,241.62H630.74l22.88-241.62,9.69-103.18,14.85-156.18ZM626.64,353.09l-5.14,54.09-4.7,49.09-17,179.56-.33,3.44-2.1,22.27H391.84l-19.4-205.27-2.38-24.84-7.47-78.34L351.23,233.26H638Z"/><path d="M685.13,113.74l-3.49,36.36H589.39l-4.21,46.81-3.26,36.35L567.45,394.64c-1.88-.16-3.73-.24-5.54-.29-.4,0-.78,0-1.17,0-.55,0-1.11,0-1.66,0-1.11,0-2.26.05-3.46.17-1,.09-2,.21-3,.37-1.82.28-3.72.68-5.66,1.16l-1.32.35-1.83.5c-1.23.37-2.48.75-3.73,1.19-.28.08-.54.17-.8.26-.95.33-1.91.66-2.88,1-1.88.7-3.77,1.44-5.72,2.24l-.4.16,15.15-168.47,3.27-36.35,7.48-83.17Z"/><path d="M441.43,609.44,460,598.77c2.94,5.2,6,8,13.21,8,9.33,0,12.14-5.33,12.14-11.07V532.34h21.34V595.7c0,20.54-14.41,31.88-33.62,31.88C458.24,627.58,447.57,621.31,441.43,609.44Z"/><path d="M514,604.5l18.41-10.67c3.34,7.74,9.07,12.94,19.61,12.94,10.14,0,12.67-4,12.67-7.6,0-5.74-5.33-8-19.34-11.87s-27.48-10.54-27.48-28.41,15.21-28.42,31.35-28.42c15.34,0,27.34,7.34,34.15,21.08l-18,10.54c-3.2-6.67-7.6-10.81-16.14-10.81-6.67,0-10,3.34-10,7.07,0,4.27,2.26,7.2,16.8,11.61,14.14,4.27,30,9.2,30,28.94,0,18-14.4,28.68-34.68,28.68C531.75,627.58,519.21,618.24,514,604.5Z"/><path class="cls-1" d="M545.46,233.26,530.31,401.73C498.42,415,459,441.26,434.71,441.26c-30.53,0-60-8.44-64.65-9.83l-7.47-78.34L351.23,233.26Z"/><path class="cls-1" d="M638,233.26,626.64,353.09l-5.14,54.09c-5.14-1.75-31.11-10.7-54-12.54l14.47-161.38Z"/><path d="M238.94,797.84v88.55H218.7V851.22H190.88v35.17H170.64V797.84h20.24v33.9H218.7v-33.9Z"/><path d="M244.41,854.76a33.52,33.52,0,1,1,33.52,33.4A33.15,33.15,0,0,1,244.41,854.76Zm48.06,0c0-9-6.32-14.92-14.54-14.92s-14.55,5.94-14.55,14.92,6.32,14.93,14.55,14.93S292.47,863.75,292.47,854.76Z"/><path d="M354.23,821.87v21.51c-7.85-1.27-19,1.9-19,14.42v28.59h-19V823.14h19V834.4C337.78,825.92,346.26,821.87,354.23,821.87Z"/><path d="M356.76,854.76c0-18.84,14.3-33.39,33.52-33.39,12.27,0,23.15,6.45,28.59,16.19l-16.57,9.61c-2.15-4.42-6.7-7.08-12.27-7.08-8.22,0-14.29,5.95-14.29,14.67s6.07,14.68,14.29,14.68c5.57,0,10.25-2.66,12.27-7.09l16.57,9.49c-5.44,9.87-16.19,16.32-28.59,16.32C371.06,888.16,356.76,873.61,356.76,854.76Z"/><path d="M484.66,847.55v38.84h-19v-36c0-7.84-4.94-11.51-11-11.51-7,0-11.77,4-11.77,13v34.53h-19V797.84h19v31.24c3.42-4.67,9.75-7.71,18.09-7.71C473.78,821.37,484.66,830.48,484.66,847.55Z"/><path d="M559.43,823.14v63.25h-19v-5.95c-4.18,4.81-10.38,7.72-18.85,7.72-16.57,0-30.23-14.55-30.23-33.4s13.66-33.39,30.23-33.39c8.47,0,14.67,2.91,18.85,7.71v-5.94Zm-19,31.62c0-9.48-6.33-15.43-15.06-15.43s-15,5.95-15,15.43,6.32,15.44,15,15.44S540.46,864.25,540.46,854.76Z"/><path d="M594.23,841.36v22.39c0,5.43,4.68,5.94,13,5.43v17.21c-24.8,2.53-32-4.93-32-22.64V841.36H565.13V823.14h10.12v-12l19-5.69v17.71h13v18.22Z"/><path d="M681,823.14v63.25H662v-5.95c-4.17,4.81-10.37,7.72-18.84,7.72-16.57,0-30.23-14.55-30.23-33.4s13.66-33.39,30.23-33.39c8.47,0,14.67,2.91,18.84,7.71v-5.94Zm-19,31.62c0-9.48-6.32-15.43-15-15.43s-15.05,5.95-15.05,15.43S638.25,870.2,647,870.2,662,864.25,662,854.76Z"/><path d="M688.61,871l17.58-10.12c2.78,4.93,5.7,7.59,12.53,7.59,8.85,0,11.51-5.06,11.51-10.5V797.84h20.24v60.09c0,19.48-13.67,30.23-31.88,30.23C704.55,888.16,694.43,882.21,688.61,871Z"/><path d="M757.43,866.28l17.46-10.12c3.16,7.33,8.6,12.27,18.6,12.27,9.61,0,12-3.8,12-7.21,0-5.44-5.06-7.59-18.34-11.26s-26.06-10-26.06-27,14.42-26.94,29.73-26.94c14.54,0,25.93,7,32.38,20l-17.07,10c-3-6.33-7.21-10.25-15.31-10.25-6.33,0-9.49,3.17-9.49,6.71,0,4,2.15,6.83,15.94,11,13.41,4,28.46,8.73,28.46,27.45,0,17.08-13.66,27.2-32.89,27.2C774.26,888.16,762.37,879.31,757.43,866.28Z"/><rect class="cls-3" width="1000" height="1000"/></g></g></svg>